<?xml version="1.0" encoding="utf-8"?>
<!-- Generator: Adobe Illustrator 24.1.2, SVG Export Plug-In . SVG Version: 6.00 Build 0)  -->
<svg version="1.1" id="Layer_1" xmlns="http://www.w3.org/2000/svg" xmlns:xlink="http://www.w3.org/1999/xlink" x="0px" y="0px"
	 viewBox="0 0 32 32" style="enable-background:new 0 0 32 32;" xml:space="preserve">
<style type="text/css">
	.st0{fill:#E1808A;}
	.st1{fill:#FFFFFF;}
</style>
<circle class="st1" cx="16" cy="16" r="4.2"/>
<path class="st1" d="M21.2,3.3H10.9c-4.2,0-7.6,3.4-7.6,7.6v10.3c0,4.2,3.4,7.6,7.6,7.6h10.3c4.2,0,7.6-3.4,7.6-7.6V10.9
	C28.7,6.7,25.3,3.3,21.2,3.3z M16,22.9c-3.8,0-6.9-3.1-6.9-6.9s3.1-6.9,6.9-6.9c3.8,0,6.9,3.1,6.9,6.9S19.8,22.9,16,22.9z M24.2,8.8
	c-0.8,0-1.4-0.6-1.4-1.4c0-0.8,0.6-1.4,1.4-1.4s1.4,0.6,1.4,1.4C25.6,8.2,25,8.8,24.2,8.8z"/>
</svg>
