<?xml version="1.0" encoding="utf-8"?>
<!-- Generator: Adobe Illustrator 24.1.2, SVG Export Plug-In . SVG Version: 6.00 Build 0)  -->
<svg version="1.1" id="Layer_1" xmlns="http://www.w3.org/2000/svg" xmlns:xlink="http://www.w3.org/1999/xlink" x="0px" y="0px"
	 viewBox="0 0 32 32" style="enable-background:new 0 0 32 32;" xml:space="preserve">
<style type="text/css">
	.st0{fill:#E1808A;}
	.st1{fill:#FFFFFF;}
</style>
<path class="st0" d="M10.7,12.4v3c0,0,2.7,0.4,2.7-1.4S11.8,12.4,10.7,12.4z"/>
<path class="st0" d="M10.7,17.1v3c0,0,2.7,0.4,2.7-1.4C13.3,17.1,12.2,17.1,10.7,17.1z"/>
<path class="st0" d="M25.6,4.2H6.4c-1.4,0-2.6,1.2-2.6,2.6v19.2c0,1.4,1.2,2.6,2.6,2.6h19.2c1.4,0,2.6-1.2,2.6-2.6V6.8
	C28.2,5.4,27.1,4.2,25.6,4.2z M18,10.7h5V12h-5V10.7z M12.9,22.2H8.5V10.7c0,0,3.6,0,4.3,0s2.8,0.6,2.8,2.8c0,1.9-1.5,2.7-1.5,2.7
	s1.6,0.4,1.6,2.7C15.7,22.1,12.9,22.2,12.9,22.2z M24.2,18.6l-4.7,0c0,0.8,0.4,2,1.5,2c1.3,0.1,2.1-0.8,2.1-0.8l1,1.2
	c-0.9,0.9-1.4,1.3-3.2,1.3c-2.4,0-3.4-2-3.4-4.4c0-2.5,0.8-4.4,3.4-4.4c2.4,0,3.2,2,3.2,4.4C24.2,18.1,24.2,18.3,24.2,18.6z"/>
<path class="st0" d="M19.6,17.1h2.3c0,0,0.3-2-1-2C19.6,15.1,19.6,15.9,19.6,17.1z"/>
</svg>
