<?xml version="1.0" encoding="utf-8"?>
<!-- Generator: Adobe Illustrator 24.1.2, SVG Export Plug-In . SVG Version: 6.00 Build 0)  -->
<svg version="1.1" id="Layer_1" xmlns="http://www.w3.org/2000/svg" xmlns:xlink="http://www.w3.org/1999/xlink" x="0px" y="0px"
	 viewBox="0 0 32 32" style="enable-background:new 0 0 32 32;" xml:space="preserve">
<style type="text/css">
	.st0{fill:#E1808A;}
	.st1{fill:#FFFFFF;}
</style>
<g>
	<path class="st1" d="M11.1,22.9c0.6,0.3,1.3,0.2,1.7-0.4c0.5-0.6,0.3-1.5-0.4-1.9l-3.3-2c-0.7,0.6-1.1,1.5-1.3,2.4L11.1,22.9z"/>
	<path class="st1" d="M16,2.2C8.9,2.2,3,7.6,2.2,14.6l6.9,4.1c0.7-0.7,1.7-1.1,2.8-1.1l2.8-4.3c0-3.1,2.5-5.6,5.6-5.6
		s5.6,2.5,5.6,5.6s-2.5,5.6-5.6,5.6L16,21.6c0,2.3-1.8,4.1-4.1,4.1s-4.1-1.8-4.1-4.1c0-0.2,0-0.4,0-0.6l-5.5-3.1
		C3.2,24.6,9,29.8,16,29.8c7.6,0,13.8-6.2,13.8-13.8C29.8,8.4,23.6,2.2,16,2.2z"/>
	<circle class="st1" cx="20.2" cy="13.3" r="2.8"/>
</g>
<path class="st1" d="M12.4,20.6l-3.3-2c-0.7,0.6-1.1,1.5-1.3,2.4l3.2,1.8c0.6,0.3,1.3,0.2,1.7-0.4C13.3,21.9,13.1,21,12.4,20.6z"/>
</svg>
