<?xml version="1.0" encoding="utf-8"?>
<!-- Generator: Adobe Illustrator 24.1.2, SVG Export Plug-In . SVG Version: 6.00 Build 0)  -->
<svg version="1.1" id="Layer_1" xmlns="http://www.w3.org/2000/svg" xmlns:xlink="http://www.w3.org/1999/xlink" x="0px" y="0px"
	 viewBox="0 0 32 32" style="enable-background:new 0 0 32 32;" xml:space="preserve">
<style type="text/css">
	.st0{fill:#FFFFFF;}
	.st1{opacity:0.14;fill:#FFFFFF;}
	.st2{fill:#383838;}
</style>
<image style="overflow:visible;" width="32" height="32" xlink:href="Behance.png"  transform="matrix(1 0 0 1 -186.5 -165)">
</image>
<image style="overflow:visible;" width="32" height="32" xlink:href="Instagram.png"  transform="matrix(1 0 0 1 -154.5 -60)">
</image>
<image style="overflow:visible;" width="32" height="32" xlink:href="Steam Circled.png"  transform="matrix(1 0 0 1 -32 -187.5)">
</image>
<rect x="-182.8" y="-161.3" class="st0" width="24.3" height="24.3"/>
<circle class="st0" cx="-16" cy="-171.5" r="14"/>
<image style="overflow:visible;" width="32" height="32" xlink:href="Steam Circled.png"  transform="matrix(6.625 0 0 6.625 102.8333 -277.5)">
</image>
<circle class="st1" cx="208.8" cy="-171.5" r="92.8"/>
<circle class="st0" cx="236.2" cy="-190.5" r="35.6"/>
<circle class="st0" cx="181.8" cy="-134.3" r="27.1"/>
<path class="st0" d="M203.4-204.4c-0.8,25.7-17.8,41.5-31.2,44.8"/>
<image style="overflow:visible;" width="1920" height="1080" xlink:href="B76216AE.jpg"  transform="matrix(1 0 0 1 356 -437.5)">
</image>
<path class="st2" d="M25.9,3.2L3,12.7c-2.3,1-2.2,4.3,0.2,5.1l5.2,1.7c0,0,0.1,0,0.1,0.1l1.8,5.5c0.7,2.2,3.6,2.7,5,0.9l1.5-1.9
	c0-0.1,0.1-0.1,0.2,0l4,3.7c1.6,1.5,4.3,0.7,4.8-1.5L30,6.6C30.5,4.2,28.2,2.2,25.9,3.2z M26.6,6.7L23,25.3c0,0.2-0.2,0.3-0.4,0.1
	l-5.6-4.8c-0.1-0.1-0.2-0.1-0.3,0l-3,2.5c-0.2,0.1-0.4,0-0.4-0.2l0.6-3.6c0,0,0-0.1,0.1-0.1l7.5-7.8c0.2-0.2,0-0.5-0.3-0.4L10,17.2
	c-0.1,0-0.1,0-0.2,0l-4.2-1.7c-0.2-0.1-0.2-0.4,0-0.4l20.6-8.6C26.4,6.4,26.6,6.6,26.6,6.7z"/>
</svg>
